<svg width="24" height="24" viewBox="0 0 24 24" fill="none" xmlns="http://www.w3.org/2000/svg">
<path d="M5.84821 8.77915C5.69196 8.61444 5.56801 8.41884 5.48344 8.20355C5.39886 7.98825 5.35533 7.75747 5.35533 7.52441C5.35533 7.29135 5.39886 7.06057 5.48344 6.84527C5.56801 6.62998 5.69196 6.43438 5.84821 6.26967L11.1965 0.630005C11.4312 0.381964 11.7304 0.212922 12.0562 0.144235C12.382 0.0755473 12.7197 0.110297 13.0268 0.244093C13.3338 0.377889 13.5964 0.604729 13.7814 0.895954C13.9664 1.18718 14.0654 1.52972 14.0659 1.88031C14.0655 2.05592 14.0414 2.23057 13.9945 2.39905C13.9945 2.44339 13.9651 2.48773 13.9483 2.5365C13.8633 2.75567 13.7376 2.95467 13.5786 3.12174L8.22614 8.77915C8.07007 8.94404 7.88473 9.07485 7.68072 9.1641C7.4767 9.25335 7.25802 9.29928 7.03718 9.29928C6.81633 9.29928 6.59765 9.25335 6.39364 9.1641C6.18963 9.07485 6.00428 8.94404 5.84821 8.77915ZM11.3141 12.4148L1.43264 22.8295C1.31515 22.9528 1.16574 23.0367 1.00321 23.0706C0.840683 23.1045 0.672282 23.0869 0.519179 23.0201C0.366076 22.9533 0.235104 22.8402 0.142728 22.6951C0.0503523 22.5499 0.000695595 22.3792 0 22.2044C0.0075633 21.9723 0.101089 21.7526 0.26048 21.5925L10.1377 11.1556C10.5928 11.5042 10.9903 11.9296 11.3141 12.4148ZM12.982 13.7937L12.9232 13.8602C12.6279 12.8216 12.0935 11.8765 11.3677 11.109C10.642 10.3415 9.7474 9.77566 8.76391 9.46194L8.82273 9.4043L14.1668 3.76463C14.2088 3.72029 14.2508 3.67152 14.2886 3.62275C14.5716 4.6706 15.1032 5.6249 15.8333 6.39534C16.5633 7.16577 17.4676 7.72683 18.4605 8.02542L18.3261 8.15399L12.982 13.7937ZM21.7921 10.0339C21.7918 10.2672 21.7478 10.4981 21.6627 10.7134C21.5776 10.9287 21.4532 11.1242 21.2964 11.2886L15.9523 16.9327C15.7963 17.0976 15.6109 17.2284 15.4069 17.3177C15.2029 17.4069 14.9842 17.4529 14.7634 17.4529C14.5425 17.4529 14.3238 17.4069 14.1198 17.3177C13.9158 17.2284 13.7305 17.0976 13.5744 16.9327C13.4184 16.7679 13.2947 16.5723 13.2103 16.357C13.126 16.1417 13.0827 15.911 13.0828 15.678C13.0828 15.4897 13.1112 15.3026 13.1669 15.1238C13.1762 15.0891 13.1874 15.0551 13.2005 15.0218C13.2823 14.7959 13.4099 14.5916 13.5744 14.4232L18.9227 8.77915C19.0861 8.60749 19.2823 8.47449 19.4982 8.38898C19.5347 8.37173 19.5727 8.35836 19.6117 8.34908C19.7771 8.292 19.9502 8.26356 20.1242 8.26484C20.5699 8.26484 20.9974 8.45168 21.3125 8.78428C21.6277 9.11687 21.8047 9.56796 21.8047 10.0383L21.7921 10.0339ZM22.4391 21.1492H12.356C12.0217 21.1492 11.7012 21.2893 11.4648 21.5388C11.2284 21.7882 11.0956 22.1265 11.0956 22.4793C11.0956 22.8321 11.2284 23.1704 11.4648 23.4198C11.7012 23.6693 12.0217 23.8094 12.356 23.8094H22.4391C22.7734 23.8094 23.094 23.6693 23.3304 23.4198C23.5667 23.1704 23.6995 22.8321 23.6995 22.4793C23.6995 22.1265 23.5667 21.7882 23.3304 21.5388C23.094 21.2893 22.7734 21.1492 22.4391 21.1492Z" fill="white"/>
</svg>
