<svg width="26" height="27" viewBox="0 0 26 27" fill="none" xmlns="http://www.w3.org/2000/svg">
<path d="M9.46578 10.2474C9.66123 10.1496 9.74036 9.91185 9.64264 9.71639C9.54491 9.52094 9.30791 9.44141 9.11167 9.53954C9.10573 9.5427 8.4802 9.83826 7.88316 9.53954C7.68731 9.44141 7.44992 9.52094 7.35219 9.71639C7.25446 9.91185 7.33359 10.1496 7.52905 10.2474C7.85467 10.4104 8.17871 10.4646 8.46556 10.4646C9.02186 10.4646 9.43967 10.26 9.46578 10.2474ZM7.70591 7.61665C7.8337 7.61665 7.95913 7.55493 8.03549 7.44059C8.15656 7.25898 8.1075 7.01288 7.92589 6.89181C7.28374 6.46411 6.60163 6.69042 6.30014 6.89181C6.11854 7.01288 6.06948 7.25859 6.19055 7.44059C6.31162 7.62259 6.55732 7.67125 6.73932 7.55018C6.74328 7.54741 7.11757 7.30409 7.4875 7.55018C7.55437 7.59529 7.63073 7.61665 7.70591 7.61665ZM9.50851 7.55018C9.51207 7.54741 9.88715 7.30409 10.2567 7.55018C10.324 7.59529 10.4003 7.61665 10.4759 7.61665C10.6037 7.61665 10.7291 7.55493 10.8055 7.44059C10.9265 7.25898 10.8775 7.01288 10.6959 6.89181C10.0537 6.46411 9.37161 6.69042 9.07013 6.89181C8.88852 7.01288 8.83946 7.25859 8.96053 7.44059C9.0816 7.62259 9.32611 7.67125 9.50851 7.55018Z" fill="white"/>
<path d="M0.980128 26.0368H16.015C16.2334 26.0368 16.4107 25.8595 16.4107 25.6411V22.0802C16.4107 21.8618 16.2334 21.6846 16.015 21.6846C15.7966 21.6846 15.6194 21.8618 15.6194 22.0802V25.2455H13.2454V19.3106C13.2454 19.0922 13.0682 18.915 12.8498 18.915C12.6314 18.915 12.4541 19.0922 12.4541 19.3106V25.2455H8.89323V15.3205C9.73914 15.1859 10.4608 14.6506 10.7429 14.1671H12.4541C14.1994 14.1671 15.6194 15.5871 15.6194 17.3324V20.8933C15.6194 21.1117 15.7966 21.2889 16.015 21.2889C16.2334 21.2889 16.4107 21.1117 16.4107 20.8933V17.3324C16.4107 15.1507 14.6358 13.3758 12.4541 13.3758H10.8102L10.5312 11.7271C11.3455 11.2321 11.92 10.3823 12.0355 9.39235C12.1063 9.40857 12.1799 9.41926 12.2563 9.41926C12.8015 9.41926 13.2454 8.97533 13.2454 8.43012V5.19485C13.2454 2.72477 11.2929 0.714844 8.89323 0.714844H8.10192C5.70227 0.714844 3.74971 2.72477 3.74971 5.19485V8.43012C3.74971 8.97533 4.19364 9.41926 4.73885 9.41926C4.81521 9.41926 4.8888 9.40857 4.96002 9.39235C5.07635 10.3902 5.65875 11.2452 6.48329 11.7386L6.18853 13.3758H4.54102C2.35938 13.3758 0.584473 15.1507 0.584473 17.3324V25.6411C0.584473 25.8595 0.761726 26.0368 0.980128 26.0368ZM12.4541 8.43012C12.4541 8.53932 12.3655 8.62795 12.2563 8.62795C12.1471 8.62795 12.0585 8.53932 12.0585 8.43012V7.24315C12.0585 7.13395 12.1471 7.04533 12.2563 7.04533C12.3655 7.04533 12.4541 7.13395 12.4541 7.24315V8.43012ZM8.10192 1.50615H8.89323C10.8565 1.50615 12.4541 3.16078 12.4541 5.19485V6.27419C12.39 6.26114 12.324 6.25402 12.2563 6.25402C12.1886 6.25402 12.1226 6.26114 12.0585 6.27419V5.85836C12.0585 5.74362 12.0086 5.63482 11.922 5.55964C11.8353 5.48447 11.7214 5.45004 11.6066 5.46706C9.39413 5.78358 8.01923 4.16773 7.70626 3.75308V2.69312C7.70626 2.47472 7.52901 2.29746 7.31061 2.29746C7.09221 2.29746 6.91495 2.47472 6.91495 2.69312V3.80491C6.54739 4.79286 5.16893 5.49752 5.15508 5.50464C5.02135 5.57191 4.93668 5.7088 4.93668 5.85836V6.27419C4.87258 6.26114 4.80651 6.25402 4.73885 6.25402C4.67119 6.25402 4.60512 6.26114 4.54102 6.27419V5.19485C4.54102 3.16078 6.13868 1.50615 8.10192 1.50615ZM4.73885 8.62795C4.62965 8.62795 4.54102 8.53932 4.54102 8.43012V7.24315C4.54102 7.13395 4.62965 7.04533 4.73885 7.04533C4.84805 7.04533 4.93668 7.13395 4.93668 7.24315V8.43012C4.93668 8.53932 4.84805 8.62795 4.73885 8.62795ZM5.72799 9.0236V6.09219C6.11217 5.86825 6.90269 5.33966 7.38658 4.59899C8.00894 5.27635 9.33241 6.38973 11.2672 6.29358V9.0236C11.2672 10.3328 10.2025 11.3975 8.89323 11.3975H8.10192C6.7927 11.3975 5.72799 10.3328 5.72799 9.0236ZM8.10192 12.1888H8.89323C9.20303 12.1888 9.50175 12.1422 9.78464 12.0587L10.0719 13.7548C9.97337 13.9736 9.31025 14.5628 8.49758 14.5628C7.68648 14.5628 7.02455 13.9764 6.92406 13.7564L7.22871 12.0638C7.50646 12.1433 7.79885 12.1888 8.10192 12.1888ZM1.37578 17.3324C1.37578 15.5871 2.79579 14.1671 4.54102 14.1671H6.25223C6.53433 14.6502 7.25601 15.1859 8.10192 15.3205V25.2455H4.54102V19.3106C4.54102 19.0922 4.36377 18.915 4.14537 18.915C3.92697 18.915 3.74971 19.0922 3.74971 19.3106V25.2455H1.37578V17.3324Z" fill="white"/>
<path d="M24.3238 0.714844H15.2237C14.3509 0.714844 13.6411 1.42465 13.6411 2.29746V4.27574C13.6411 4.49414 13.8183 4.6714 14.0367 4.6714C14.2551 4.6714 14.4324 4.49414 14.4324 4.27574V2.29746C14.4324 1.86106 14.7873 1.50615 15.2237 1.50615H24.3238C24.7602 1.50615 25.1151 1.86106 25.1151 2.29746V9.0236C25.1151 9.46001 24.7602 9.81491 24.3238 9.81491H18.7846C18.6718 9.81491 18.5646 9.86437 18.4895 9.94825C18.4147 10.0321 18.3791 10.1457 18.3913 10.2573C18.3953 10.2929 18.4819 11.134 17.8406 11.7952C17.3792 12.27 16.6603 12.5406 15.6945 12.6043C16.4554 11.7904 16.5199 10.7182 16.4028 10.1326C16.366 9.94785 16.2037 9.81491 16.015 9.81491H15.2237C14.7873 9.81491 14.4324 9.46001 14.4324 9.0236V5.85836C14.4324 5.63996 14.2551 5.46271 14.0367 5.46271C13.8183 5.46271 13.6411 5.63996 13.6411 5.85836V9.0236C13.6411 9.89642 14.3509 10.6062 15.2237 10.6062H15.6534C15.6577 11.1229 15.4987 12.1275 14.2852 12.6126C14.1151 12.6806 14.0138 12.8571 14.0411 13.0387C14.068 13.2203 14.2164 13.3592 14.3996 13.3746C14.6848 13.3984 14.9578 13.4102 15.2194 13.4102C16.6591 13.4102 17.7337 13.0498 18.4198 12.3348C18.9896 11.741 19.1443 11.0478 19.1791 10.6062H24.3238C25.1966 10.6062 25.9064 9.89642 25.9064 9.0236V2.29746C25.9064 1.42465 25.1966 0.714844 24.3238 0.714844Z" fill="white"/>
<path d="M21.5542 5.06705C21.3358 5.06705 21.1585 5.24431 21.1585 5.46271V9.0236C21.1585 9.24201 21.3358 9.41926 21.5542 9.41926H23.1368C23.3552 9.41926 23.5325 9.24201 23.5325 9.0236V5.46271C23.5325 5.24431 23.3552 5.06705 23.1368 5.06705H21.5542ZM21.9499 7.04533H22.7412V7.44098H21.9499V7.04533ZM21.9499 5.85836H22.7412V6.25402H21.9499V5.85836ZM22.7412 8.62795H21.9499V8.23229H22.7412V8.62795ZM18.389 6.25402C18.1706 6.25402 17.9933 6.43127 17.9933 6.64967V9.0236C17.9933 9.24201 18.1706 9.41926 18.389 9.41926H19.9716C20.19 9.41926 20.3672 9.24201 20.3672 9.0236V6.64967C20.3672 6.43127 20.19 6.25402 19.9716 6.25402H18.389ZM18.7846 7.04533H19.5759V7.44098H18.7846V7.04533ZM19.5759 8.62795H18.7846V8.23229H19.5759V8.62795ZM14.8281 7.83664V9.0236C14.8281 9.24201 15.0053 9.41926 15.2237 9.41926H16.8063C17.0247 9.41926 17.202 9.24201 17.202 9.0236V7.83664C17.202 7.61824 17.0247 7.44098 16.8063 7.44098H15.2237C15.0053 7.44098 14.8281 7.61824 14.8281 7.83664ZM15.6194 8.23229H16.4107V8.62795H15.6194V8.23229ZM24.6035 2.01774C24.4488 1.86304 24.1988 1.86304 24.0441 2.01774L22.3083 3.75348L21.0003 2.77225C20.9132 2.70697 20.8028 2.68125 20.696 2.69866C20.5888 2.71686 20.4938 2.77898 20.4337 2.86919L19.0829 4.89534L17.835 3.95922C17.748 3.89393 17.6376 3.86782 17.5308 3.88563C17.4236 3.90383 17.3286 3.96594 17.2685 4.05615L15.6858 6.43008C15.5648 6.61169 15.6138 6.85779 15.7954 6.97886C15.8631 7.02396 15.9395 7.04533 16.0146 7.04533C16.1424 7.04533 16.2678 6.98361 16.3442 6.86926L17.695 4.84311L18.9429 5.77923C19.0299 5.84451 19.1399 5.87063 19.2471 5.85282C19.3544 5.83462 19.4493 5.77251 19.5094 5.6823L20.8602 3.65615L22.1081 4.59227C22.2656 4.71057 22.4864 4.69435 22.6252 4.55547L24.6035 2.57719C24.7582 2.42249 24.7582 2.17244 24.6035 2.01774Z" fill="white"/>
</svg>
