<svg width="26" height="27" viewBox="0 0 26 27" fill="none" xmlns="http://www.w3.org/2000/svg">
<path d="M24.4901 0.891357H16.0488C15.5899 0.891357 15.2167 1.24112 15.2167 1.67105V6.88376C15.2167 7.31369 15.5899 7.6636 16.0488 7.6636H16.5632V9.6085C16.5632 10.1865 17.3281 10.452 17.731 10.0183L19.9195 7.6636H24.4901C24.9487 7.6636 25.3219 7.31369 25.3219 6.88376V1.67105C25.3219 1.24112 24.9487 0.891357 24.4901 0.891357ZM24.7649 6.88381C24.7649 7.02595 24.6416 7.14153 24.4901 7.14153H19.7928C19.7122 7.14153 19.6355 7.17418 19.5828 7.23115L17.3111 9.67546C17.244 9.74747 17.1204 9.70271 17.1204 9.60855V7.40262C17.1204 7.25845 16.9958 7.14158 16.8419 7.14158H16.0489C15.8974 7.14158 15.7739 7.02595 15.7739 6.88386V1.67105C15.7739 1.52906 15.8974 1.41343 16.0489 1.41343H24.4902C24.6417 1.41343 24.765 1.52906 24.765 1.67105L24.7649 6.88381ZM20.269 3.33236C19.7138 3.33236 19.262 3.75566 19.262 4.27609C19.262 4.79782 19.7139 5.22216 20.269 5.22216C20.8242 5.22216 21.2761 4.79782 21.2761 4.27609C21.2761 3.75566 20.8243 3.33236 20.269 3.33236ZM20.269 4.70004C20.021 4.70004 19.8191 4.50988 19.8191 4.27609C19.8191 4.0436 20.021 3.85442 20.269 3.85442C20.5171 3.85442 20.719 4.0436 20.719 4.27609C20.719 4.50988 20.5171 4.70004 20.269 4.70004ZM17.7122 3.33236C17.157 3.33236 16.7052 3.75566 16.7052 4.27609C16.7052 4.79782 17.157 5.22216 17.7122 5.22216C18.2688 5.22216 18.7215 4.79782 18.7215 4.27609C18.7215 3.75566 18.2688 3.33236 17.7122 3.33236ZM17.7122 4.70004C17.4641 4.70004 17.2623 4.50988 17.2623 4.27609C17.2623 4.0436 17.4641 3.85442 17.7122 3.85442C17.9614 3.85442 18.1643 4.0436 18.1643 4.27609C18.1644 4.50988 17.9614 4.70004 17.7122 4.70004ZM22.8258 3.33236C22.2693 3.33236 21.8166 3.75566 21.8166 4.27609C21.8166 4.79782 22.2692 5.22216 22.8258 5.22216C23.381 5.22216 23.8328 4.79782 23.8328 4.27609C23.8329 3.75566 23.381 3.33236 22.8258 3.33236ZM22.8258 4.70004C22.5766 4.70004 22.3737 4.50988 22.3737 4.27609C22.3737 4.0436 22.5766 3.85442 22.8258 3.85442C23.0739 3.85442 23.2757 4.0436 23.2757 4.27609C23.2757 4.50988 23.0739 4.70004 22.8258 4.70004ZM16.5273 22.9357C16.5273 23.0798 16.4027 23.1967 16.2488 23.1967H13.7818C13.6278 23.1967 13.5032 23.0798 13.5032 22.9357C13.5032 22.7915 13.6278 22.6746 13.7818 22.6746H16.2488C16.4027 22.6746 16.5273 22.7915 16.5273 22.9357ZM15.3957 18.9374V11.8509C15.3957 8.5382 12.3946 6.11767 9.08003 6.34147C6.01564 6.54325 3.61524 9.02491 3.61524 11.991V18.9396C1.21447 19.6977 0 21.0585 0 22.9998V24.386C0 25.3936 0.874824 26.2133 1.94987 26.2133H17.07C18.145 26.2133 19.0198 25.3935 19.0198 24.386V22.9998C19.0199 21.0563 17.8022 19.6948 15.3957 18.9374ZM4.17232 11.991C4.17232 9.29776 6.34526 7.04489 9.11966 6.86225C12.1208 6.65794 14.8385 8.85062 14.8385 11.8509V18.7778C13.9773 18.5554 12.9986 18.4115 12.1057 18.3331C11.6873 18.2963 11.3596 17.9544 11.3596 17.5547V17.4055C12.6954 16.4242 13.5516 14.53 13.5516 13.1187C13.5516 11.5672 12.0551 9.35261 10.7426 8.9614C10.1626 8.7883 9.64169 8.95705 9.27856 9.43827C8.3107 10.7258 7.41814 11.1136 6.76639 11.3967C6.03706 11.7137 5.46094 11.9639 5.46094 13.1188C5.46094 14.5296 6.31671 16.4232 7.65182 17.4048V17.555C7.65182 17.9613 7.33112 18.296 6.90592 18.3333C6.05479 18.4082 5.03426 18.5566 4.17232 18.78V11.991ZM8.19111 17.7353C8.59852 17.9381 9.03929 18.0563 9.50628 18.0563C9.9729 18.0563 10.4133 17.9383 10.8204 17.7358C10.907 18.3286 11.4055 18.7959 12.0538 18.8529C12.4588 18.8885 12.8487 18.9339 13.2156 18.9883C12.9713 20.7111 11.3898 22.0286 9.51003 22.0286C7.62871 22.0286 6.04577 20.7111 5.80148 18.9881C6.16625 18.9338 6.55419 18.8886 6.95817 18.853C7.60623 18.796 8.10483 18.3285 8.19111 17.7353ZM6.01806 13.1187C6.01806 12.2973 6.30589 12.1722 7.00092 11.8703C7.70956 11.5625 8.68016 11.1407 9.73373 9.73946C9.95374 9.44786 10.2195 9.35325 10.574 9.45904C11.66 9.78254 12.9945 11.8006 12.9945 13.1187C12.9945 15.0651 11.3523 17.5343 9.50633 17.5343C7.58084 17.5343 6.01806 14.8625 6.01806 13.1187ZM18.4628 24.386C18.4628 25.1057 17.8379 25.6913 17.07 25.6913H1.94987C1.18191 25.6913 0.557076 25.1057 0.557076 24.386V22.9998C0.557076 20.9683 2.14081 19.6526 5.25654 19.0814C5.54944 21.0487 7.35798 22.5507 9.51008 22.5507C11.6604 22.5507 13.4674 21.049 13.7605 19.0821C16.8775 19.6528 18.4628 20.9682 18.4628 22.9998L18.4628 24.386Z" fill="white"/>
</svg>
