<svg width="31" height="30" viewBox="0 0 31 30" fill="none" xmlns="http://www.w3.org/2000/svg">
<path fill-rule="evenodd" clip-rule="evenodd" d="M15.2984 0.294678C7.13509 0.294678 0.479492 6.94085 0.479492 15.1028C0.479492 23.2648 7.13644 29.9191 15.2984 29.9191C23.4604 29.9191 30.1039 23.2648 30.1039 15.1028C30.1039 6.94085 23.4604 0.294678 15.2984 0.294678ZM15.2984 2.98707C16.8901 2.98441 18.4667 3.296 19.9377 3.90396C21.4087 4.51193 22.7452 5.40431 23.8706 6.52993C24.9959 7.65555 25.888 8.99226 26.4956 10.4634C27.1033 11.9345 27.4145 13.5112 27.4115 15.1028C27.4147 16.695 27.1036 18.2721 26.4962 19.7437C25.8887 21.2154 24.9967 22.5527 23.8714 23.679C22.7461 24.8053 21.4096 25.6984 19.9385 26.3072C18.4674 26.916 16.8905 27.2285 15.2984 27.2267C13.7056 27.2286 12.1281 26.9164 10.6561 26.3078C9.18416 25.6993 7.84668 24.8064 6.72028 23.6802C5.59387 22.5541 4.70065 21.2168 4.09177 19.7449C3.48289 18.2731 3.17029 16.6956 3.17189 15.1028C3.17189 8.39609 8.59167 2.98707 15.2984 2.98707ZM15.2769 5.66062C15.099 5.66236 14.9231 5.69937 14.7596 5.76949C14.596 5.83961 14.448 5.94147 14.3241 6.06916C14.2001 6.19685 14.1028 6.34784 14.0375 6.51341C13.9723 6.67898 13.9406 6.85583 13.9442 7.03374V15.1028C13.9449 15.28 13.9806 15.4553 14.0492 15.6186C14.1178 15.7819 14.218 15.9301 14.344 16.0546L19.7288 21.4421C19.8533 21.5703 20.0022 21.6724 20.1666 21.7424C20.331 21.8125 20.5077 21.8491 20.6865 21.8501C20.8652 21.8511 21.0423 21.8165 21.2076 21.7484C21.3728 21.6802 21.5228 21.5799 21.6488 21.4531C21.7748 21.3264 21.8743 21.1758 21.9416 21.0102C22.0088 20.8446 22.0423 20.6673 22.0403 20.4886C22.0383 20.3098 22.0007 20.1333 21.9297 19.9693C21.8587 19.8053 21.7558 19.657 21.6269 19.5332L16.6392 14.5455V7.03374C16.6429 6.85333 16.6102 6.67404 16.5431 6.50652C16.4761 6.33899 16.376 6.18666 16.249 6.05857C16.1219 5.93047 15.9703 5.82924 15.8033 5.76087C15.6363 5.69251 15.4573 5.65842 15.2769 5.66062Z" fill="white"/>
</svg>
